<?xml version="1.0" encoding="UTF-8"?>
<svg version="1.1" xmlns="http://www.w3.org/2000/svg" width="512" height="512">
<path d="M0 0 C4.98123658 -0.00905982 9.96221201 -0.03046811 14.94335938 -0.06152344 C21.11464663 -0.09995485 27.28569743 -0.11875362 33.45709991 -0.12328148 C35.7646348 -0.12810861 38.07216696 -0.13960967 40.37963104 -0.15831947 C43.5688053 -0.18272842 46.75704961 -0.18175108 49.94628906 -0.17480469 C50.86761627 -0.18761475 51.78894348 -0.2004248 52.7381897 -0.21362305 C64.59580762 -0.11984743 74.60756507 4.8569783 83.29101562 12.73266602 C84.05414063 13.57829102 84.81726563 14.42391602 85.60351562 15.29516602 C86.08433594 15.7837207 86.56515625 16.27227539 87.06054688 16.77563477 C97.97862631 28.41237259 98.90571765 42.94012329 98.87817383 58.0769043 C98.88252722 59.66291543 98.88771246 61.24892447 98.8936615 62.83493042 C98.90699104 67.11987872 98.90763725 71.40473849 98.9050982 75.68970346 C98.90402499 79.27334575 98.90892046 82.85697038 98.91370362 86.44060886 C98.92477654 94.89490841 98.92524782 103.34916351 98.91918945 111.8034668 C98.91314235 120.51556523 98.92548442 129.22750247 98.94675952 137.93957341 C98.96438304 145.43280633 98.97037594 152.92598795 98.96712178 160.41924083 C98.96531097 164.88900638 98.96792554 169.35865676 98.98183632 173.82840347 C98.99442332 178.02936038 98.9924624 182.23006572 98.97942543 186.43101883 C98.97706251 187.96969183 98.97978416 189.5083826 98.98804855 191.04703522 C98.9985417 193.15291347 98.99039611 195.25795136 98.97773743 197.36380005 C98.97790517 198.54030184 98.97807291 199.71680363 98.97824574 200.92895699 C98.47024435 205.49234486 97.16484391 209.52327692 94.06835938 213.03735352 C88.0768666 217.48117169 84.03140195 218.05161271 76.60351562 217.29516602 C71.60121365 214.8394905 68.10500027 211.29813531 65.60351562 206.29516602 C65.50369143 204.19292612 65.47005274 202.08745279 65.46548462 199.98284912 C65.46266334 199.32792174 65.45984206 198.67299435 65.45693529 197.99822068 C65.44857155 195.79347968 65.44724952 193.58878879 65.44580078 191.3840332 C65.4411338 189.80728514 65.43599043 188.23053842 65.43040466 186.65379333 C65.4191125 183.2527148 65.41068367 179.85164509 65.40428543 176.45055389 C65.39361717 171.07192204 65.37337496 165.69335335 65.35116577 160.3147583 C65.28920369 145.01805518 65.235238 129.72135535 65.20214844 114.42456055 C65.18380218 105.98053345 65.15486505 97.53661173 65.11414373 89.0926621 C65.09307161 84.62340103 65.07761619 80.15427278 65.07533646 75.68495941 C65.07318869 71.47913866 65.05730624 67.27359431 65.03094673 63.06785774 C65.02375684 61.5255619 65.02165128 59.98323255 65.02504921 58.44092369 C65.02895253 56.33209558 65.01446299 54.22414653 64.99551392 52.11541748 C64.9905487 50.34670603 64.9905487 50.34670603 64.98548317 48.54226303 C64.40553566 43.61214306 62.40149941 40.31361769 59.37634277 36.45266724 C54.12175844 32.44832843 46.52529324 33.67660045 40.23828125 33.77514648 C38.6609519 33.78147211 37.08361214 33.78554408 35.50627136 33.78753662 C32.11590872 33.79654954 28.72615559 33.82126888 25.33598328 33.85821152 C19.97388201 33.91636101 14.61200105 33.93835646 9.24963379 33.95535278 C-0.19785695 33.98989484 -9.64495329 34.05490688 -19.09222412 34.12670898 C-33.31523607 34.23458631 -47.53835512 34.31902971 -61.76166964 34.37407982 C-67.09071998 34.39585783 -72.41934123 34.4337449 -77.74819183 34.48445487 C-81.06442455 34.51323453 -84.38063889 34.52969458 -87.69696617 34.54302216 C-89.23287071 34.55182215 -90.76875573 34.56583537 -92.30455971 34.58549118 C-94.40427806 34.61169799 -96.50328796 34.61920739 -98.60314941 34.62228394 C-99.77709511 34.63154341 -100.9510408 34.64080288 -102.16056061 34.65034294 C-107.25285581 34.09140958 -111.29441928 31.98048933 -114.70898438 28.17016602 C-117.92921808 24.15334818 -118.78536456 20.395827 -118.39648438 15.29516602 C-116.65473135 9.4893226 -113.7911295 5.31819903 -108.52199173 2.1780653 C-106.13906189 1.18823713 -104.4000073 1.02156991 -101.8258667 0.98127747 C-100.91229652 0.96241045 -99.99872635 0.94354343 -99.05747223 0.92410469 C-98.06171928 0.91353979 -97.06596634 0.90297489 -96.04003906 0.89208984 C-94.45818943 0.86423306 -94.45818943 0.86423306 -92.84438324 0.83581352 C-89.33578624 0.77709974 -85.8271782 0.73299271 -82.31835938 0.68969727 C-79.84111884 0.65285411 -77.363885 0.61555883 -74.88665771 0.57783508 C-49.9257859 0.21537233 -24.96333065 0.04062588 0 0 Z " fill="#000000" transform="translate(413.396484375,-0.295166015625)"/>
<path d="M0 0 C5.00230198 2.45567552 8.49851535 5.9970307 11 11 C11.09982419 13.1022399 11.13346289 15.20771323 11.13803101 17.31231689 C11.14085229 17.96724428 11.14367357 18.62217166 11.14658034 19.29694533 C11.15494407 21.50168633 11.15626611 23.70637723 11.15771484 25.91113281 C11.16238182 27.48788088 11.16752519 29.0646276 11.17311096 30.64137268 C11.18440313 34.04245121 11.19283196 37.44352092 11.19923019 40.84461212 C11.20989845 46.22324398 11.23014067 51.60181267 11.25234985 56.98040771 C11.31431193 72.27711084 11.36827763 87.57381066 11.40136719 102.87060547 C11.41971345 111.31463256 11.44865058 119.75855428 11.4893719 128.20250392 C11.51044401 132.67176499 11.52589943 137.14089324 11.52817917 141.6102066 C11.53032694 145.81602736 11.54620938 150.02157171 11.57256889 154.22730827 C11.57975879 155.76960412 11.58186435 157.31193346 11.57846642 158.85424232 C11.57456309 160.96307043 11.58905263 163.07101948 11.60800171 165.17974854 C11.61131186 166.3588895 11.614622 167.53803047 11.61803246 168.75290298 C12.19805481 173.68365919 14.20244343 176.98219165 17.22816467 180.8434906 C22.47946923 184.84531958 30.0675444 183.60938865 36.34936523 183.50415039 C37.92506972 183.49618658 39.50078707 183.49049254 41.07650757 183.4868927 C44.46360546 183.47449618 47.85008493 183.44648518 51.23696709 183.40638924 C56.59512644 183.34344872 61.95307181 183.31776313 67.3115387 183.29747009 C77.72010319 183.25305683 88.12822225 183.1721614 98.53651428 183.08623505 C111.78127711 182.97787014 125.02599412 182.88178332 138.27109677 182.8269977 C143.59495926 182.8036776 148.91815426 182.76012096 154.24173152 182.70073521 C157.55692161 182.66764754 160.87204751 182.65116597 164.18737411 182.63903618 C165.72126468 182.62997162 167.25513285 182.61398968 168.78886986 182.59046936 C183.17493751 182.37622571 183.17493751 182.37622571 189 187 C192.27551523 190.36404266 194.00855792 193.40331398 195 198 C194.91121244 203.59361655 193.86504103 206.92246731 190.64453125 211.45703125 C185.42163291 216.3573753 179.86112953 216.46105131 173.11108398 216.50073242 C172.12662104 216.51788866 171.14215809 216.5350449 170.12786293 216.55272102 C166.85480649 216.60564376 163.5819277 216.637166 160.30859375 216.66796875 C157.98268875 216.69977135 155.65679653 216.7325208 153.33091736 216.76615906 C145.88745402 216.86734823 138.44385544 216.93527606 131 217 C128.55006845 217.02321838 126.10013761 217.04651279 123.65020752 217.06988525 C108.93762079 217.20476907 94.22561138 217.27148206 79.51245117 217.29516602 C74.47587651 217.30420313 69.43956207 217.32555755 64.40307617 217.35668945 C58.17039996 217.39517812 51.93795841 217.41392633 45.70516777 217.41844749 C43.37416638 217.42326976 41.04316754 217.43475632 38.7122364 217.45348549 C21.98512502 217.58027158 8.41850531 217.18208776 -5 206 C-5.70898438 205.42636719 -6.41796875 204.85273438 -7.1484375 204.26171875 C-15.453966 196.83129383 -20.41317868 185.936694 -22 175 C-22.29134516 169.73908673 -22.284242 164.48506496 -22.2746582 159.21826172 C-22.2790116 157.63225058 -22.28419683 156.04624155 -22.29014587 154.4602356 C-22.30347542 150.1752873 -22.30412162 145.89042752 -22.30158257 141.60546255 C-22.30050937 138.02182027 -22.30540483 134.43819564 -22.310188 130.85455716 C-22.32126092 122.40025761 -22.3217322 113.9460025 -22.31567383 105.49169922 C-22.30962672 96.77960078 -22.32196879 88.06766355 -22.3432439 79.35559261 C-22.36086742 71.86235969 -22.36686032 64.36917806 -22.36360615 56.87592518 C-22.36179534 52.40615963 -22.36440991 47.93650926 -22.37832069 43.46676254 C-22.3909077 39.26580563 -22.38894677 35.06510029 -22.37590981 30.86414719 C-22.37354688 29.32547419 -22.37626854 27.78678342 -22.38453293 26.2481308 C-22.39502607 24.14225255 -22.38688049 22.03721466 -22.3742218 19.93136597 C-22.37438954 18.75486418 -22.37455729 17.57836239 -22.37473011 16.36620903 C-21.86672873 11.80282116 -20.56132828 7.7718891 -17.46484375 4.2578125 C-11.47335097 -0.18600567 -7.42788632 -0.7564467 0 0 Z " fill="#000000" transform="translate(22,295)"/>
<path d="M0 0 C5.88256836 3.92171224 8.21520366 8.11865687 9.8125 14.875 C10.07979965 18.1235075 10.07979965 18.1235075 10.10443115 21.52043152 C10.11848495 22.81690613 10.13253876 24.11338074 10.14701843 25.44914246 C10.15257207 26.8686821 10.15792109 28.28822256 10.16308594 29.70776367 C10.17567161 31.21640709 10.18908573 32.72504379 10.20326233 34.2336731 C10.23902879 38.31861644 10.26246298 42.40354353 10.2830801 46.48858809 C10.30154471 49.90765257 10.32627391 53.32665983 10.35105062 56.74568349 C10.40954424 64.81943004 10.45827342 72.89319403 10.50048828 80.96704102 C10.54404511 89.27233482 10.60211593 97.57743347 10.66773582 105.88257998 C10.72381216 113.03185315 10.77171793 120.18114834 10.8129847 127.33052236 C10.83760428 131.59200415 10.86500609 135.8534169 10.89989471 140.11482811 C10.93231453 144.12771911 10.95440873 148.14054325 10.96890068 152.15353775 C10.97581778 153.61756434 10.98618202 155.08157983 11.00045204 156.54555321 C11.10834232 167.95677016 10.89733488 178.98189949 5.5 189.25 C4.92636719 190.37148438 4.35273438 191.49296875 3.76171875 192.6484375 C-3.10137536 204.00899007 -13.45477614 210.52485658 -25.89830208 214.4090147 C-28.96204824 215.03266574 -31.87876131 215.01128264 -35.006073 215.02217102 C-35.6912941 215.02584771 -36.3765152 215.0295244 -37.08250058 215.0333125 C-39.37776192 215.04432257 -41.67297795 215.04818857 -43.96826172 215.05200195 C-45.61426944 215.05826848 -47.26027575 215.06491545 -48.90628052 215.07191467 C-54.3099062 215.09292966 -59.7135321 215.10331257 -65.1171875 215.11328125 C-66.97811015 215.11732933 -68.83903264 215.12144627 -70.69995499 215.12563133 C-79.44048282 215.14467496 -88.18100223 215.15890945 -96.92154682 215.1672433 C-107.01081601 215.17702224 -117.09986619 215.20336233 -127.18905818 215.24374419 C-134.98874533 215.27389154 -142.78836962 215.28871074 -150.5881139 215.29202431 C-155.24633006 215.29437578 -159.90431201 215.30334918 -164.56246567 215.32848549 C-168.9439531 215.35174803 -173.32505178 215.35600686 -177.70658493 215.34572411 C-179.31341341 215.34522824 -180.92026093 215.35156368 -182.52703094 215.36528015 C-184.72347288 215.38297968 -186.91851656 215.37590421 -189.11495972 215.36274719 C-190.95720532 215.36632972 -190.95720532 215.36632972 -192.83666801 215.36998463 C-197.99898191 214.60740804 -201.06398343 212.11997782 -204.5 208.3125 C-207.44612553 204.05698534 -207.71460065 199.91599899 -207.1875 194.875 C-205.43961339 190.18330436 -202.94285352 187.16093433 -199.1875 183.875 C-195.86492099 182.76747366 -193.38982313 182.74474555 -189.88900757 182.73696899 C-188.92688589 182.73273707 -188.92688589 182.73273707 -187.9453274 182.72841966 C-185.79215269 182.72007486 -183.63902941 182.71873549 -181.48583984 182.71728516 C-179.94336807 182.7126167 -178.40089768 182.70747308 -176.85842896 182.70188904 C-173.53376774 182.69060609 -170.20911551 182.68217271 -166.88444138 182.67576981 C-161.62252214 182.66508654 -156.36066713 182.64483939 -151.0987854 182.62265015 C-136.13473463 182.56074148 -121.17068716 182.50676094 -106.20654297 182.47363281 C-97.94413076 182.45526088 -89.68182574 182.42629056 -81.41949236 182.3856281 C-77.04907788 182.36459711 -72.67879828 182.34910642 -68.30833054 182.34682083 C-64.19277068 182.3446661 -60.07749136 182.32871307 -55.96201706 182.30243111 C-54.456457 182.29526732 -52.95086285 182.29312289 -51.44528961 182.29653358 C-38.74030726 182.67736531 -38.74030726 182.67736531 -27.57999229 177.49405861 C-23.25450277 172.65893099 -23.06119651 168.65506405 -23.09416199 162.39810181 C-23.09711374 161.42539811 -23.09711374 161.42539811 -23.10012513 160.43304384 C-23.10783855 158.26211784 -23.12270451 156.0912989 -23.13745117 153.92041016 C-23.14428229 152.36307478 -23.15061243 150.80573714 -23.15647888 149.24839783 C-23.16980605 145.89535457 -23.18594483 142.5423405 -23.20403099 139.18931961 C-23.23187025 133.88618883 -23.24887455 128.58305841 -23.26350403 123.27987671 C-23.26864786 121.46379276 -23.27380449 119.64770886 -23.27897358 117.83162498 C-23.28155914 116.92219352 -23.2841447 116.01276205 -23.28680861 115.07577205 C-23.32285198 102.73045664 -23.36824349 90.38523151 -23.43432617 78.04003906 C-23.47882336 69.71106584 -23.50907909 61.38217128 -23.52318364 53.0530895 C-23.53125628 48.64634607 -23.5467673 44.23990342 -23.57985497 39.83327103 C-23.61092363 35.68819824 -23.62338008 31.54348694 -23.62163734 27.39830208 C-23.62433162 25.878536 -23.63388439 24.35876396 -23.65086365 22.83909035 C-23.67307343 20.76089714 -23.67043937 18.68412696 -23.66178894 16.60586548 C-23.66926793 14.86317351 -23.66926793 14.86317351 -23.676898 13.08527565 C-22.90443743 8.01821091 -20.36284861 4.93568045 -16.625 1.5625 C-11.43239458 -2.03238068 -5.78482046 -2.04170134 0 0 Z " fill="#000000" transform="translate(501.1875,297.125)"/>
<path d="M0 0 C1.02889 -0.00445668 1.02889 -0.00445668 2.07856566 -0.0090034 C4.37616574 -0.01767259 6.6737136 -0.01919712 8.97132874 -0.02069092 C10.61895865 -0.02532025 12.26658749 -0.03034506 13.91421509 -0.03573608 C18.38937743 -0.04884853 22.86452478 -0.05530245 27.33970332 -0.05974674 C30.13516806 -0.06267852 32.93062871 -0.06678346 35.72609138 -0.07125092 C44.47142516 -0.08492101 53.21674957 -0.09459082 61.96209329 -0.09845281 C72.0598226 -0.10293655 82.15741675 -0.12050113 92.25510496 -0.1494534 C100.0598729 -0.17105553 107.86460275 -0.18115625 115.66940027 -0.18249393 C120.33145091 -0.18354274 124.99337441 -0.18946714 129.6553936 -0.20731354 C134.03929364 -0.22376949 138.4229706 -0.22596183 142.80689049 -0.21717453 C144.41574449 -0.2164029 146.02461038 -0.22076342 147.6334343 -0.23063278 C149.8300269 -0.24331773 152.0258252 -0.23749504 154.22241211 -0.22705078 C156.06604041 -0.22925062 156.06604041 -0.22925062 157.94691372 -0.2314949 C162.75297071 0.3223059 165.93063292 2.40758169 168.92469788 6.14044189 C172.29882832 10.63928249 172.74955942 14.64267517 172.17469788 20.14044189 C170.42681126 24.83213754 167.93005139 27.85450757 164.17469788 31.14044189 C160.83976886 32.2520849 158.34598652 32.27072441 154.83151245 32.2784729 C154.18530888 32.28129418 153.5391053 32.28411546 152.8733198 32.28702223 C150.70399167 32.29536734 148.53471458 32.29670642 146.3653717 32.29815674 C144.81142534 32.30282513 143.25748033 32.30796873 141.70353699 32.31355286 C138.35431865 32.32483558 135.00510923 32.33326902 131.65587807 32.33967209 C126.35642815 32.35035338 121.05704205 32.37059953 115.75762939 32.39279175 C100.68696523 32.45470858 85.61630448 32.50869716 70.54554749 32.54180908 C62.22418156 32.56017223 53.90292224 32.58913076 45.5816347 32.62981379 C41.17939414 32.65085787 36.77728778 32.66633735 32.37499428 32.66862106 C28.23071096 32.6707734 24.08670689 32.68670229 19.9425087 32.71301079 C18.42524062 32.72018336 16.90793863 32.72231469 15.39065742 32.71890831 C3.21869055 32.31971497 3.21869055 32.31971497 -7.36624432 37.52138329 C-11.74126786 42.39764442 -11.95198875 46.28765759 -11.91864014 52.61734009 C-11.9166723 53.26580922 -11.91470446 53.91427835 -11.91267699 54.58239806 C-11.90496358 56.75332405 -11.89009761 58.924143 -11.87535095 61.09503174 C-11.86851984 62.65236711 -11.8621897 64.20970476 -11.85632324 65.76704407 C-11.84299607 69.12008733 -11.8268573 72.47310139 -11.80877113 75.82612228 C-11.78093188 81.12925307 -11.76392757 86.43238348 -11.7492981 91.73556519 C-11.74415426 93.55164913 -11.73899764 95.36773304 -11.73382854 97.18381691 C-11.73124298 98.09324838 -11.72865742 99.00267985 -11.72599351 99.93966985 C-11.68995014 112.28498526 -11.64455864 124.63021039 -11.57847595 136.97540283 C-11.53397877 145.30437606 -11.50372304 153.63327061 -11.48961848 161.9623524 C-11.48154584 166.36909583 -11.46603482 170.77553847 -11.43294716 175.18217087 C-11.40187849 179.32724365 -11.38942205 183.47195495 -11.39116478 187.61713982 C-11.38847051 189.1369059 -11.37891774 190.65667793 -11.36193848 192.17635155 C-11.3397287 194.25454475 -11.34236276 196.33131493 -11.35101318 198.40957642 C-11.34602719 199.57137106 -11.3410412 200.7331657 -11.33590412 201.93016624 C-12.10836469 206.99723099 -14.64995352 210.07976144 -18.38780212 213.45294189 C-22.64331678 216.39906743 -26.78430314 216.66754255 -31.82530212 216.14044189 C-36.50482451 214.39709042 -39.74475927 212.0766911 -42.82530212 208.14044189 C-45.18015466 200.24489591 -45.14551345 192.46425029 -45.17588806 184.28009033 C-45.1884815 182.79247858 -45.20189636 181.30487359 -45.21606445 179.817276 C-45.25174981 175.79849779 -45.27523656 171.77973596 -45.29588223 167.76085567 C-45.31437885 164.39397682 -45.33909988 161.02715543 -45.36385274 157.66031766 C-45.42228875 149.70923339 -45.47103458 141.75813143 -45.51329041 133.8069458 C-45.55686022 125.63341316 -45.61493994 117.46007846 -45.68053794 109.28669524 C-45.73664266 102.24437237 -45.78453673 95.20202702 -45.82578683 88.15960145 C-45.85038256 83.96462715 -45.87776429 79.76972358 -45.91269684 75.57482147 C-45.94515534 71.6251008 -45.96722641 67.67544837 -45.9817028 63.72562218 C-45.98860987 62.28620188 -45.99896251 60.84679275 -46.01325417 59.40742683 C-46.12481821 47.82200047 -46.05170494 36.12983434 -40.51280212 25.70294189 C-39.93916931 24.59048096 -39.3655365 23.47802002 -38.77452087 22.33184814 C-31.85678418 11.00561392 -21.56517952 4.49628343 -9.11492062 0.60600662 C-6.048258 -0.01756012 -3.13015387 0.007578 0 0 Z " fill="#000000" transform="translate(45.82530212402344,-0.14044189453125)"/>
</svg>
