<?xml version="1.0" encoding="UTF-8"?>
<svg version="1.1" xmlns="http://www.w3.org/2000/svg" width="512" height="512">
<path d="M0 0 C1.51427582 0.00081573 1.51427582 0.00081573 3.05914307 0.00164795 C19.57458953 0.04242844 35.47683935 0.97005679 51.6875 4.375 C52.70279785 4.58398926 53.7180957 4.79297852 54.76416016 5.00830078 C92.00927307 12.92207219 126.61435877 29.09831369 156.6875 52.375 C157.574375 53.04917969 158.46125 53.72335938 159.375 54.41796875 C174.95857275 66.53020077 189.56897311 80.815951 201.6875 96.375 C202.83412109 97.77878906 202.83412109 97.77878906 204.00390625 99.2109375 C238.63252637 142.45502491 257.12615997 197.95439907 257.00317383 253.10229492 C257.0000221 256.04188487 257.02354926 258.9804558 257.04882812 261.91992188 C257.09348737 275.29306192 255.88801542 288.18916711 253.6875 301.375 C253.40531616 303.08055054 253.40531616 303.08055054 253.11743164 304.82055664 C246.09196967 343.93204746 229.10915906 381.11452178 204.6875 412.375 C203.92824219 413.34695313 203.16898437 414.31890625 202.38671875 415.3203125 C190.05236402 430.69991644 176.25145499 445.25265196 160.6875 457.375 C159.75164062 458.13941406 158.81578125 458.90382813 157.8515625 459.69140625 C125.89878299 485.2782721 86.73238322 501.78801276 46.6875 509.375 C45.87812988 509.53871094 45.06875977 509.70242188 44.23486328 509.87109375 C14.19360013 515.74227137 -20.4490176 514.64762909 -50.3125 508.375 C-51.83544678 508.06151611 -51.83544678 508.06151611 -53.38916016 507.74169922 C-90.41987024 499.87348372 -125.54229285 483.80253986 -155.3125 460.375 C-156.281875 459.61703125 -157.25125 458.8590625 -158.25 458.078125 C-173.63624823 445.75164204 -188.19043448 431.93859226 -200.3125 416.375 C-201.45912109 414.97121094 -201.45912109 414.97121094 -202.62890625 413.5390625 C-228.2157721 381.58628299 -244.72551276 342.41988322 -252.3125 302.375 C-252.47621094 301.56562988 -252.63992187 300.75625977 -252.80859375 299.92236328 C-258.27819558 271.93585724 -258.15727511 238.28078161 -252.3125 210.375 C-252.11382324 209.40014648 -251.91514648 208.42529297 -251.71044922 207.42089844 C-243.54031954 168.36339461 -227.91464583 131.92599681 -203.3125 100.375 C-202.63960937 99.49070312 -201.96671875 98.60640625 -201.2734375 97.6953125 C-189.17239743 82.10837611 -174.87412021 67.48333932 -159.3125 55.375 C-157.87390625 54.21097656 -157.87390625 54.21097656 -156.40625 53.0234375 C-112.04539346 17.73639253 -56.33670873 -0.11460668 0 0 Z M-155.3125 96.375 C-155.80991699 96.84518555 -156.30733398 97.31537109 -156.81982422 97.79980469 C-164.82588763 105.39694934 -171.71999721 113.53444153 -178.3125 122.375 C-178.73772949 122.93413086 -179.16295898 123.49326172 -179.60107422 124.06933594 C-186.85720107 133.62700244 -192.79110829 143.73057576 -198.3125 154.375 C-198.70324707 155.12378418 -199.09399414 155.87256836 -199.49658203 156.64404297 C-215.35922991 187.4307599 -222.76770261 221.18914341 -222.6875 255.6875 C-222.68662384 256.61086151 -222.68574768 257.53422302 -222.68484497 258.48556519 C-222.50128459 317.31698491 -198.84454805 371.17725135 -158.3125 413.375 C-157.4565625 414.2721875 -156.600625 415.169375 -155.71875 416.09375 C-149.95167803 422.0068238 -143.8712581 427.35892238 -137.3125 432.375 C-136.66780762 432.8690332 -136.02311523 433.36306641 -135.35888672 433.87207031 C-124.52651324 442.09836549 -113.41595013 449.17624313 -101.3125 455.375 C-100.5695166 455.76139648 -99.8265332 456.14779297 -99.06103516 456.54589844 C-47.00218466 483.37942993 14.29700289 486.91138824 69.80664062 469.32373047 C103.28178428 458.29962808 132.39351384 439.67053934 157.6875 415.375 C159.03328125 414.09109375 159.03328125 414.09109375 160.40625 412.78125 C166.32476517 407.00887101 171.62533335 400.90764578 176.6875 394.375 C177.11144043 393.83278809 177.53538086 393.29057617 177.97216797 392.73193359 C208.32261115 353.66557944 224.18086364 305.81246348 224.0625 256.5 C224.06162384 255.6028125 224.06074768 254.705625 224.05984497 253.78125 C223.87172394 195.12393939 200.01701388 141.44448287 159.6875 99.375 C158.79289062 98.42753906 157.89828125 97.48007813 156.9765625 96.50390625 C150.07248731 89.36699568 142.61738392 83.30664885 134.6875 77.375 C134.12691895 76.94832031 133.56633789 76.52164063 132.98876953 76.08203125 C123.43266384 68.82776124 113.32977007 62.89527431 102.6875 57.375 C101.93871582 56.98425293 101.18993164 56.59350586 100.41845703 56.19091797 C17.01944409 13.22014006 -86.58576482 30.74478687 -155.3125 96.375 Z " fill="#000000" transform="translate(255.3125,-0.375)"/>
<path d="M0 0 C4.1613629 2.39854069 7.15804554 5.35880746 10.50924683 8.76628113 C11.2026265 9.45922272 11.89600616 10.15216431 12.61039734 10.86610413 C14.89002026 13.1478094 17.15884527 15.43994054 19.42770386 17.73234558 C21.01030988 19.32054949 22.59358155 20.90809035 24.17749023 22.49499512 C28.33680094 26.66573925 32.48702207 30.8454151 36.63540649 35.02702332 C40.87321314 39.29556295 45.11956541 43.55558256 49.36520386 47.81632996 C57.68868785 56.17195164 66.00259293 64.53703526 74.31051636 72.90812683 C77.12324008 71.6267558 79.16674188 70.29859367 81.33943176 68.10626221 C81.9098671 67.53568588 82.48030243 66.96510956 83.06802368 66.37724304 C83.68163757 65.75329651 84.29525146 65.12934998 84.92745972 64.48649597 C85.58325516 63.82778 86.2390506 63.16906403 86.91471863 62.49038696 C88.336684 61.0608165 89.75633425 59.62894034 91.17393303 58.19503975 C93.41824663 55.92519306 95.66875441 53.66165814 97.92100525 51.39968872 C103.51384124 45.78011162 109.09579624 40.14976532 114.6781311 34.51976013 C119.39537575 29.76305158 124.1166905 25.01045476 128.84350777 20.26325798 C131.05945356 18.03435572 133.26928306 15.7995086 135.47895813 13.56439209 C136.84040075 12.19568283 138.20212585 10.82725446 139.56417847 9.45915222 C140.17576813 8.83722992 140.78735779 8.21530762 141.41748047 7.57453918 C148.73240279 0.25781777 148.73240279 0.25781777 154.24801636 -0.49031067 C155.25864136 -0.48257629 156.26926636 -0.47484192 157.31051636 -0.46687317 C158.32114136 -0.47460754 159.33176636 -0.48234192 160.37301636 -0.49031067 C165.01547842 0.13938498 168.16022102 2.29217421 171.06051636 5.90812683 C174.07410335 9.92624282 174.44092394 12.72483674 174.63864136 17.67765808 C173.65557007 24.3602022 169.03484992 28.60004647 164.45236206 33.1068573 C163.75942047 33.80023697 163.06647888 34.49361664 162.35253906 35.20800781 C160.07083379 37.48763073 157.77870265 39.75645574 155.48629761 42.02531433 C153.8980937 43.60792035 152.31055284 45.19119202 150.72364807 46.77510071 C146.55290394 50.93441142 142.37322809 55.08463254 138.19161987 59.23301697 C133.92308023 63.47082361 129.66306063 67.71717588 125.40231323 71.96281433 C117.04669155 80.28629832 108.68160793 88.6002034 100.31051636 96.90812683 C101.59188739 99.72085055 102.92004952 101.76435235 105.11238098 103.93704224 C105.68295731 104.50747757 106.25353363 105.0779129 106.84140015 105.66563416 C107.46534668 106.27924805 108.08929321 106.89286194 108.73214722 107.52507019 C109.39086319 108.18086563 110.04957916 108.83666107 110.72825623 109.5123291 C112.15782669 110.93429447 113.58970284 112.35394472 115.02360344 113.7715435 C117.29345012 116.01585711 119.55698504 118.26636489 121.81895447 120.51861572 C127.43853157 126.11145171 133.06887787 131.69340671 138.69888306 137.27574158 C143.45559161 141.99298622 148.20818843 146.71430097 152.95538521 151.44111824 C155.18428746 153.65706403 157.41913459 155.86689354 159.6542511 158.0765686 C161.02296036 159.43801123 162.39138873 160.79973633 163.75949097 162.16178894 C164.38141327 162.7733786 165.00333557 163.38496826 165.644104 164.01509094 C172.96082542 171.33001327 172.96082542 171.33001327 173.70895386 176.84562683 C173.70121948 177.85625183 173.69348511 178.86687683 173.68551636 179.90812683 C173.69325073 180.91875183 173.70098511 181.92937683 173.70895386 182.97062683 C173.07925821 187.61308889 170.92646898 190.7578315 167.31051636 193.65812683 C163.29240037 196.67171382 160.49380645 197.03853441 155.54098511 197.23625183 C148.85844099 196.25318054 144.61859672 191.63246039 140.11178589 187.04997253 C139.41840622 186.35703094 138.72502655 185.66408936 138.01063538 184.95014954 C135.73101245 182.66844426 133.46218745 180.37631312 131.19332886 178.08390808 C129.61072284 176.49570417 128.02745117 174.90816331 126.44354248 173.32125854 C122.28423177 169.15051441 118.13401064 164.97083856 113.98562622 160.78923035 C109.74781958 156.52069071 105.5014673 152.2606711 101.25582886 147.99992371 C92.93234486 139.64430203 84.61843979 131.2792184 76.31051636 122.90812683 C73.49779264 124.18949786 71.45429084 125.51765999 69.28160095 127.70999146 C68.71116562 128.28056778 68.14073029 128.8511441 67.55300903 129.43901062 C66.93939514 130.06295715 66.32578125 130.68690369 65.693573 131.32975769 C65.03777756 131.98847366 64.38198212 132.64718964 63.70631409 133.3258667 C62.28434872 134.75543716 60.86469847 136.18731332 59.44709969 137.62121391 C57.20278608 139.8910606 54.9522783 142.15459552 52.70002747 144.41656494 C47.10719148 150.03614204 41.52523648 155.66648834 35.94290161 161.29649353 C31.22565697 166.05320208 26.50434221 170.8057989 21.77752495 175.55299568 C19.56157916 177.78189794 17.35174965 180.01674507 15.14207458 182.25186157 C13.78063196 183.62057084 12.41890686 184.9889992 11.05685425 186.35710144 C10.44526459 186.97902374 9.83367493 187.60094604 9.20355225 188.24171448 C1.88862992 195.5584359 1.88862992 195.5584359 -3.62698364 196.30656433 C-4.63760864 196.29882996 -5.64823364 196.29109558 -6.68948364 196.28312683 C-7.70010864 196.29086121 -8.71073364 196.29859558 -9.75198364 196.30656433 C-14.3944457 195.67686868 -17.53918831 193.52407945 -20.43948364 189.90812683 C-23.45307063 185.89001085 -23.81989122 183.09141692 -24.01760864 178.13859558 C-23.03453735 171.45605146 -18.4138172 167.21620719 -13.83132935 162.70939636 C-13.13838776 162.01601669 -12.44544617 161.32263702 -11.73150635 160.60824585 C-9.44980107 158.32862293 -7.15766993 156.05979792 -4.86526489 153.79093933 C-3.27706098 152.20833331 -1.68952012 150.62506164 -0.10261536 149.04115295 C4.06812878 144.88184224 8.24780463 140.73162112 12.42941284 136.58323669 C16.69795248 132.34543005 20.95797209 128.09907778 25.21871948 123.85343933 C33.57434116 115.52995534 41.93942479 107.21605026 50.31051636 98.90812683 C49.02914533 96.09540311 47.7009832 94.05190131 45.50865173 91.87921143 C44.93807541 91.30877609 44.36749908 90.73834076 43.77963257 90.15061951 C43.15568604 89.53700562 42.5317395 88.92339172 41.8888855 88.29118347 C41.23016953 87.63538803 40.57145355 86.97959259 39.89277649 86.30392456 C38.46320603 84.88195919 37.03132987 83.46230894 35.59742928 82.04471016 C33.32758259 79.80039656 31.06404767 77.54988877 28.80207825 75.29763794 C23.18250115 69.70480195 17.55215484 64.12284695 11.92214966 58.54051208 C7.16544111 53.82326744 2.41284429 49.10195269 -2.33435249 44.37513542 C-4.56325475 42.15918963 -6.79810188 39.94936012 -9.03321838 37.73968506 C-10.40192765 36.37824244 -11.77035601 35.01651734 -13.13845825 33.65446472 C-13.76038055 33.04287506 -14.38230286 32.4312854 -15.02307129 31.80116272 C-20.14271452 26.68277834 -23.43872468 22.43089562 -23.68948364 14.90812683 C-22.66430756 8.65891516 -20.35118798 4.9042092 -15.40823364 1.00187683 C-10.66462397 -2.01678387 -5.07177747 -2.0590338 0 0 Z " fill="#000000" transform="translate(180.68948364257813,158.0918731689453)"/>
</svg>
