<?xml version="1.0" encoding="UTF-8"?>
<svg version="1.1" xmlns="http://www.w3.org/2000/svg" width="512" height="512">
<path d="M0 0 C1.51427582 0.00081573 1.51427582 0.00081573 3.05914307 0.00164795 C19.57458953 0.04242844 35.47683935 0.97005679 51.6875 4.375 C52.70279785 4.58398926 53.7180957 4.79297852 54.76416016 5.00830078 C92.00927307 12.92207219 126.61435877 29.09831369 156.6875 52.375 C157.574375 53.04917969 158.46125 53.72335938 159.375 54.41796875 C174.95857275 66.53020077 189.56897311 80.815951 201.6875 96.375 C202.83412109 97.77878906 202.83412109 97.77878906 204.00390625 99.2109375 C238.63252637 142.45502491 257.12615997 197.95439907 257.00317383 253.10229492 C257.0000221 256.04188487 257.02354926 258.9804558 257.04882812 261.91992188 C257.09348737 275.29306192 255.88801542 288.18916711 253.6875 301.375 C253.40531616 303.08055054 253.40531616 303.08055054 253.11743164 304.82055664 C246.09196967 343.93204746 229.10915906 381.11452178 204.6875 412.375 C203.92824219 413.34695313 203.16898437 414.31890625 202.38671875 415.3203125 C190.05236402 430.69991644 176.25145499 445.25265196 160.6875 457.375 C159.75164062 458.13941406 158.81578125 458.90382813 157.8515625 459.69140625 C125.89878299 485.2782721 86.73238322 501.78801276 46.6875 509.375 C45.87812988 509.53871094 45.06875977 509.70242188 44.23486328 509.87109375 C14.19360013 515.74227137 -20.4490176 514.64762909 -50.3125 508.375 C-51.83544678 508.06151611 -51.83544678 508.06151611 -53.38916016 507.74169922 C-90.41987024 499.87348372 -125.54229285 483.80253986 -155.3125 460.375 C-156.281875 459.61703125 -157.25125 458.8590625 -158.25 458.078125 C-173.63624823 445.75164204 -188.19043448 431.93859226 -200.3125 416.375 C-201.45912109 414.97121094 -201.45912109 414.97121094 -202.62890625 413.5390625 C-228.2157721 381.58628299 -244.72551276 342.41988322 -252.3125 302.375 C-252.47621094 301.56562988 -252.63992187 300.75625977 -252.80859375 299.92236328 C-258.27819558 271.93585724 -258.15727511 238.28078161 -252.3125 210.375 C-252.11382324 209.40014648 -251.91514648 208.42529297 -251.71044922 207.42089844 C-243.54031954 168.36339461 -227.91464583 131.92599681 -203.3125 100.375 C-202.63960937 99.49070312 -201.96671875 98.60640625 -201.2734375 97.6953125 C-189.17239743 82.10837611 -174.87412021 67.48333932 -159.3125 55.375 C-157.87390625 54.21097656 -157.87390625 54.21097656 -156.40625 53.0234375 C-112.04539346 17.73639253 -56.33670873 -0.11460668 0 0 Z M-155.3125 96.375 C-155.80991699 96.84518555 -156.30733398 97.31537109 -156.81982422 97.79980469 C-164.82588763 105.39694934 -171.71999721 113.53444153 -178.3125 122.375 C-178.73772949 122.93413086 -179.16295898 123.49326172 -179.60107422 124.06933594 C-186.85720107 133.62700244 -192.79110829 143.73057576 -198.3125 154.375 C-198.70324707 155.12378418 -199.09399414 155.87256836 -199.49658203 156.64404297 C-215.35922991 187.4307599 -222.76770261 221.18914341 -222.6875 255.6875 C-222.68662384 256.61086151 -222.68574768 257.53422302 -222.68484497 258.48556519 C-222.50128459 317.31698491 -198.84454805 371.17725135 -158.3125 413.375 C-157.4565625 414.2721875 -156.600625 415.169375 -155.71875 416.09375 C-149.95167803 422.0068238 -143.8712581 427.35892238 -137.3125 432.375 C-136.66780762 432.8690332 -136.02311523 433.36306641 -135.35888672 433.87207031 C-124.52651324 442.09836549 -113.41595013 449.17624313 -101.3125 455.375 C-100.5695166 455.76139648 -99.8265332 456.14779297 -99.06103516 456.54589844 C-47.00218466 483.37942993 14.29700289 486.91138824 69.80664062 469.32373047 C103.28178428 458.29962808 132.39351384 439.67053934 157.6875 415.375 C159.03328125 414.09109375 159.03328125 414.09109375 160.40625 412.78125 C166.32476517 407.00887101 171.62533335 400.90764578 176.6875 394.375 C177.11144043 393.83278809 177.53538086 393.29057617 177.97216797 392.73193359 C208.32261115 353.66557944 224.18086364 305.81246348 224.0625 256.5 C224.06162384 255.6028125 224.06074768 254.705625 224.05984497 253.78125 C223.87172394 195.12393939 200.01701388 141.44448287 159.6875 99.375 C158.79289062 98.42753906 157.89828125 97.48007813 156.9765625 96.50390625 C150.07248731 89.36699568 142.61738392 83.30664885 134.6875 77.375 C134.12691895 76.94832031 133.56633789 76.52164063 132.98876953 76.08203125 C123.43266384 68.82776124 113.32977007 62.89527431 102.6875 57.375 C101.93871582 56.98425293 101.18993164 56.59350586 100.41845703 56.19091797 C17.01944409 13.22014006 -86.58576482 30.74478687 -155.3125 96.375 Z " fill="#000000" transform="translate(255.3125,-0.375)"/>
<path d="M0 0 C1.72543785 -0.0046376 1.72543785 -0.0046376 3.48573303 -0.0093689 C4.75646164 -0.00740509 6.02719025 -0.00544128 7.33642578 -0.00341797 C8.71158377 -0.00460974 10.08674151 -0.00613581 11.4618988 -0.00796509 C16.06853044 -0.01180607 20.67511535 -0.0039801 25.28173828 0.00439453 C26.88829544 0.00667243 28.49485265 0.00891005 30.10140991 0.0111084 C40.04045868 0.02617413 49.97941521 0.05692005 59.91840076 0.09494019 C65.40073473 0.11571242 70.88306256 0.13398953 76.36541748 0.14831543 C90.07083717 0.1841423 103.77601127 0.23424886 117.48123932 0.31651115 C123.72503146 0.35380161 129.96869686 0.38468924 136.21258545 0.39984131 C142.15823343 0.41479928 148.10347151 0.44900125 154.04893684 0.49757767 C156.2608293 0.51241262 158.47277896 0.5204432 160.68472099 0.52131271 C163.72963767 0.52366334 166.77339779 0.55054524 169.81811523 0.58349609 C171.15212026 0.5759496 171.15212026 0.5759496 172.51307487 0.56825066 C177.96435986 0.66015612 181.07412326 1.5170162 185.40673828 5.12939453 C189.26070277 9.29584263 190.18912159 11.86618091 190.71923828 17.37939453 C190.33150698 22.03217012 189.10285363 25.32505999 186.40673828 29.12939453 C181.00361463 33.5194325 176.96867265 34.2539422 170.16748047 34.25878906 C168.87796982 34.2618808 167.58845917 34.26497253 166.25987244 34.26815796 C164.8244525 34.26633976 163.38903277 34.26434979 161.95361328 34.26220703 C160.42708813 34.26339704 158.90056321 34.26492225 157.3740387 34.26675415 C152.30158829 34.27057715 147.22918072 34.26280279 142.15673828 34.25439453 C140.39692184 34.25211887 138.63710535 34.24988115 136.87728882 34.24768066 C126.27889552 34.23295627 115.68059138 34.20285904 105.08226109 34.16384888 C99.56878139 34.1435759 94.05530678 34.12515484 88.54180908 34.11047363 C75.45231529 34.07534682 62.36308636 34.02566612 49.2738018 33.94227791 C43.4135214 33.90506024 37.55337585 33.87411938 31.69299316 33.85894775 C26.133256 33.84401295 20.57395874 33.8098703 15.01441765 33.7612114 C12.95468835 33.7463931 10.89489785 33.73834686 8.83511543 33.73747635 C6.0060456 33.73512585 3.17822048 33.70825575 0.34936523 33.67529297 C-0.47445774 33.68032396 -1.29828072 33.68535496 -2.14706802 33.69053841 C-7.41942381 33.5947838 -10.39076358 32.58492133 -14.59326172 29.12939453 C-18.5958979 24.69404092 -19.97089427 21.37155842 -19.87060547 15.32080078 C-19.18147994 9.87573853 -16.79913621 6.10916755 -12.59326172 2.69189453 C-8.24123208 0.42521243 -4.88747961 0.00392098 0 0 Z " fill="#000000" transform="translate(170.59326171875,238.87060546875)"/>
</svg>
